# xmcd CD database file
#
# Track frame offsets:
#	180
#	19904
#	38716
#	60936
#	77566
#	98045
#	115188
#	133978
#	150779
#	167140
#	183870
#	201565
#	219552
#
# Disc length: 3138 seconds
#
# Revision: 0
# Processed by: cddbd v1.4PL0 Copyright (c) Steve Scherf et al.
# Submitted via: CDex 1.50Beta7
#
DISCID=a50c400d
DTITLE=La sonora Carruseles - Con mas Salsa...
DYEAR=1900
DGENRE=Salsa
TTITLE0=En buenaventura
TTITLE1=Oriente
TTITLE2=La chola caderona
TTITLE3=Soy el rey
TTITLE4=Margoth
TTITLE5=Federico boogaloo
TTITLE6=Cachita
TTITLE7=La fiesta en España (La virgen de la Macarena)
TTITLE8=Mosaico (Cogele el golpe y malanga amarilla)
TTITLE9=Luz de Cumbia
TTITLE10=Mi pedacito de tierra
TTITLE11=Tocando en rufo
TTITLE12=Alegre conga
EXTD=
EXTT0=
EXTT1=
EXTT2=
EXTT3=
EXTT4=
EXTT5=
EXTT6=
EXTT7=
EXTT8=
EXTT9=
EXTT10=
EXTT11=
EXTT12=
PLAYORDER=
